<svg width="20" height="20" viewBox="0 0 20 20" fill="none" xmlns="http://www.w3.org/2000/svg">
<path fill-rule="evenodd" clip-rule="evenodd" d="M12.1966 0.242013C11.4897 0.0835887 10.7546 0 10 0C9.24538 0 8.51027 0.0835884 7.80344 0.242012C7.28093 1.84312 5.77557 3 4.00001 3C3.65023 3 3.31094 2.95511 2.98759 2.87076C1.8644 3.97566 1.00112 5.34395 0.497803 6.87555C1.41353 7.60856 2.00001 8.73579 2.00001 10C2.00001 11.2642 1.41353 12.3914 0.497803 13.1245C1.00112 14.6561 1.86441 16.0243 2.98759 17.1292C3.31094 17.0449 3.65024 17 4.00001 17C5.77557 17 7.28093 18.1569 7.80343 19.758C8.51026 19.9164 9.24538 20 10 20C10.7546 20 11.4898 19.9164 12.1966 19.758C12.7191 18.1569 14.2244 17 16 17C16.3498 17 16.6891 17.0449 17.0124 17.1292C18.1356 16.0243 18.9989 14.6561 19.5022 13.1245C18.5865 12.3914 18 11.2642 18 10C18 8.73579 18.5865 7.60856 19.5022 6.87555C18.9989 5.34395 18.1356 3.97566 17.0124 2.87077C16.6891 2.95511 16.3498 3 16 3C14.2244 3 12.7191 1.84312 12.1966 0.242013ZM10 16C13.3137 16 16 13.3137 16 10C16 6.68629 13.3137 4 10 4C6.6863 4 4.00001 6.68629 4.00001 10C4.00001 13.3137 6.6863 16 10 16Z" fill="#B2D2FF"/>
</svg>
