<svg width="32" height="30" viewBox="0 0 32 30" fill="none" xmlns="http://www.w3.org/2000/svg">
<path fill-rule="evenodd" clip-rule="evenodd" d="M18.1966 5.24201C17.4897 5.08359 16.7546 5 16 5C15.2454 5 14.5103 5.08359 13.8034 5.24201C13.2809 6.84312 11.7756 8 10 8C9.65023 8 9.31094 7.95511 8.98759 7.87076C7.8644 8.97566 7.00112 10.3439 6.4978 11.8755C7.41353 12.6086 8.00001 13.7358 8.00001 15C8.00001 16.2642 7.41353 17.3914 6.4978 18.1245C7.00112 19.6561 7.86441 21.0243 8.98759 22.1292C9.31094 22.0449 9.65024 22 10 22C11.7756 22 13.2809 23.1569 13.8034 24.758C14.5103 24.9164 15.2454 25 16 25C16.7546 25 17.4898 24.9164 18.1966 24.758C18.7191 23.1569 20.2244 22 22 22C22.3498 22 22.6891 22.0449 23.0124 22.1292C24.1356 21.0243 24.9989 19.6561 25.5022 18.1245C24.5865 17.3914 24 16.2642 24 15C24 13.7358 24.5865 12.6086 25.5022 11.8755C24.9989 10.3439 24.1356 8.97566 23.0124 7.87077C22.6891 7.95511 22.3498 8 22 8C20.2244 8 18.7191 6.84312 18.1966 5.24201ZM16 21C19.3137 21 22 18.3137 22 15C22 11.6863 19.3137 9 16 9C12.6863 9 10 11.6863 10 15C10 18.3137 12.6863 21 16 21Z" fill="#006CFF"/>
</svg>
