<svg width="26" height="20" viewBox="0 0 26 20" fill="none" xmlns="http://www.w3.org/2000/svg">
<path d="M6.5 9C6.5 7.61949 7.62002 6.5 9.00093 6.5H9.01758H9.03422H9.05085H9.06746H9.08406H9.10065H9.11723H9.1338H9.15035H9.1669H9.18343H9.19995H9.21646H9.23295H9.24944H9.26591H9.28237H9.29883H9.31527H9.33169H9.34811H9.36452H9.38091H9.3973H9.41367H9.43003H9.44638H9.46273H9.47905H9.49537H9.51168H9.52798H9.54427H9.56054H9.57681H9.59307H9.60931H9.62555H9.64177H9.65798H9.67419H9.69038H9.70656H9.72274H9.7389H9.75505H9.7712H9.78733H9.80346H9.81957H9.83567H9.85177H9.86785H9.88393H9.89999H9.91605H9.9321H9.94813H9.96416H9.98018H9.99619H10.0122H10.0282H10.0442H10.0601H10.0761H10.0921H10.108H10.1239H10.1399H10.1558H10.1717H10.1876H10.2035H10.2194H10.2352H10.2511H10.267H10.2828H10.2987H10.3145H10.3303H10.3461H10.3619H10.3777H10.3935H10.4093H10.4251H10.4409H10.4566H10.4724H10.4881H10.5039H10.5196H10.5353H10.551H10.5667H10.5824H10.5981H10.6138H10.6295H10.6452H10.6608H10.6765H10.6921H10.7078H10.7234H10.739H10.7546H10.7703H10.7859H10.8015H10.817H10.8326H10.8482H10.8638H10.8793H10.8949H10.9105H10.926H10.9415H10.9571H10.9726H10.9881H11.0036H11.0191H11.0346H11.0501H11.0656H11.0811H11.0966H11.1121H11.1275H11.143H11.1584H11.1739H11.1893H11.2048H11.2202H11.2356H11.251H11.2665H11.2819H11.2973H11.3127H11.3281H11.3434H11.3588H11.3742H11.3896H11.4049H11.4203H11.4357H11.451H11.4664H11.4817H11.497H11.5124H11.5277H11.543H11.5584H11.5737H11.589H11.6043H11.6196H11.6349H11.6502H11.6655H11.6808H11.696H11.7113H11.7266H11.7419H11.7571H11.7724H11.7876H11.8029H11.8181H11.8334H11.8486H11.8639H11.8791H11.8943H11.9096H11.9248H11.94H11.9552H11.9704H11.9857H12.0009H12.0161H12.0313H12.0465H12.0617H12.0769H12.0921H12.1072H12.1224H12.1376H12.1528H12.168H12.1831H12.1983H12.2135H12.2287H12.2438H12.259H12.2741H12.2893H12.3044H12.3196H12.3348H12.3499H12.365H12.3802H12.3953H12.4105H12.4256H12.4408H12.4559H12.471H12.4862H12.5013H12.5164H12.5315H12.5467H12.5618H12.5769H12.592H12.6072H12.6223H12.6374H12.6525H12.6676H12.6827H12.6979H12.713H12.7281H12.7432H12.7583H12.7734H12.7885H12.8036H12.8187H12.8338H12.849H12.8641H12.8792H12.8943H12.9094H12.9245H12.9396H12.9547H12.9698H12.9849H13H13.0151H13.0302H13.0453H13.0604H13.0755H13.0906H13.1057H13.1208H13.1359H13.151H13.1662H13.1813H13.1964H13.2115H13.2266H13.2417H13.2568H13.2719H13.287H13.3021H13.3173H13.3324H13.3475H13.3626H13.3777H13.3928H13.408H13.4231H13.4382H13.4533H13.4685H13.4836H13.4987H13.5138H13.529H13.5441H13.5592H13.5744H13.5895H13.6047H13.6198H13.635H13.6501H13.6652H13.6804H13.6955H13.7107H13.7259H13.741H13.7562H13.7713H13.7865H13.8017H13.8169H13.832H13.8472H13.8624H13.8776H13.8928H13.9079H13.9231H13.9383H13.9535H13.9687H13.9839H13.9991H14.0143H14.0296H14.0448H14.06H14.0752H14.0904H14.1057H14.1209H14.1361H14.1514H14.1666H14.1819H14.1971H14.2124H14.2276H14.2429H14.2581H14.2734H14.2887H14.304H14.3192H14.3345H14.3498H14.3651H14.3804H14.3957H14.411H14.4263H14.4416H14.457H14.4723H14.4876H14.503H14.5183H14.5336H14.549H14.5643H14.5797H14.5951H14.6104H14.6258H14.6412H14.6566H14.6719H14.6873H14.7027H14.7181H14.7335H14.749H14.7644H14.7798H14.7952H14.8107H14.8261H14.8416H14.857H14.8725H14.8879H14.9034H14.9189H14.9344H14.9499H14.9654H14.9809H14.9964H15.0119H15.0274H15.0429H15.0585H15.074H15.0895H15.1051H15.1207H15.1362H15.1518H15.1674H15.183H15.1985H15.2141H15.2297H15.2454H15.261H15.2766H15.2922H15.3079H15.3235H15.3392H15.3548H15.3705H15.3862H15.4019H15.4176H15.4333H15.449H15.4647H15.4804H15.4961H15.5119H15.5276H15.5434H15.5591H15.5749H15.5907H15.6065H15.6223H15.6381H15.6539H15.6697H15.6855H15.7013H15.7172H15.733H15.7489H15.7648H15.7806H15.7965H15.8124H15.8283H15.8442H15.8601H15.8761H15.892H15.9079H15.9239H15.9399H15.9558H15.9718H15.9878H16.0038H16.0198H16.0358H16.0519H16.0679H16.0839H16.1H16.1161H16.1321H16.1482H16.1643H16.1804H16.1965H16.2127H16.2288H16.2449H16.2611H16.2773H16.2934H16.3096H16.3258H16.342H16.3582H16.3745H16.3907H16.4069H16.4232H16.4395H16.4557H16.472H16.4883H16.5046H16.5209H16.5373H16.5536H16.57H16.5863H16.6027H16.6191H16.6355H16.6519H16.6683H16.6847H16.7012H16.7176H16.7341H16.7506H16.767H16.7835H16.8001H16.8166H16.8331H16.8496H16.8662H16.8828H16.8993H16.9159H16.9325H16.9492H16.9658H16.9824H16.9991C18.38 6.5 19.5 7.61949 19.5 9V16C19.5 17.3807 18.3807 18.5 17 18.5H9C7.61929 18.5 6.5 17.3807 6.5 16V9Z" fill="white" stroke="#006CFF"/>
<path d="M12.6878 0.889708C12.8703 0.743771 13.1297 0.743771 13.3122 0.889708L21.7181 7.60945C22.0874 7.90463 21.8786 8.5 21.4059 8.5H4.5941C4.12137 8.5 3.91265 7.90463 4.28189 7.60945L12.6878 0.889708L12.3756 0.499161L12.6878 0.889708Z" fill="#006CFF" stroke="#006CFF"/>
</svg>
