<svg width="16" height="16" viewBox="0 0 16 16" fill="none" xmlns="http://www.w3.org/2000/svg">
<path fill-rule="evenodd" clip-rule="evenodd" d="M4.79773 4.36363C4.79849 4.36364 4.79924 4.36364 4.8 4.36364C4.80076 4.36364 4.80151 4.36364 4.80227 4.36363H11.1977C11.1985 4.36364 11.1992 4.36364 11.2 4.36364C11.2008 4.36364 11.2015 4.36364 11.2023 4.36363H12.8V11.6364C12.8 13.095 11.2349 14.5455 9.60001 14.5455H4.00001C3.55818 14.5455 3.20001 14.2198 3.20001 13.8182V4.36363H4.79773ZM12 2.90909H13.6H15.2C15.6418 2.90909 16 3.2347 16 3.63636C16 4.03802 15.6418 4.36363 15.2 4.36363H14.4V13.8182C14.4 15.0232 13.3255 16 12 16H4.00001C2.67452 16 1.60001 15.0232 1.60001 13.8182V4.36363H0.8C0.358172 4.36363 0 4.03802 0 3.63636C0 3.2347 0.358172 2.90909 0.8 2.90909H2.40001H4V2.18182C4 0.976833 5.07452 0 6.4 0H9.6C10.9255 0 12 0.976833 12 2.18182V2.90909ZM10.4 2.90909V2.18182C10.4 1.78016 10.0418 1.45455 9.6 1.45455H6.4C5.95817 1.45455 5.6 1.78016 5.6 2.18182V2.90909H10.4Z" fill="#006CFF"/>
<path fill-rule="evenodd" clip-rule="evenodd" d="M4.79773 4.36363C4.79849 4.36364 4.79924 4.36364 4.8 4.36364C4.80076 4.36364 4.80151 4.36364 4.80227 4.36363H11.1977C11.1985 4.36364 11.1992 4.36364 11.2 4.36364C11.2008 4.36364 11.2015 4.36364 11.2023 4.36363H12.8V11.6364C12.8 13.095 11.2349 14.5455 9.60001 14.5455H4.00001C3.55818 14.5455 3.20001 14.2198 3.20001 13.8182V4.36363H4.79773ZM12 2.90909H13.6H15.2C15.6418 2.90909 16 3.2347 16 3.63636C16 4.03802 15.6418 4.36363 15.2 4.36363H14.4V13.8182C14.4 15.0232 13.3255 16 12 16H4.00001C2.67452 16 1.60001 15.0232 1.60001 13.8182V4.36363H0.8C0.358172 4.36363 0 4.03802 0 3.63636C0 3.2347 0.358172 2.90909 0.8 2.90909H2.40001H4V2.18182C4 0.976833 5.07452 0 6.4 0H9.6C10.9255 0 12 0.976833 12 2.18182V2.90909ZM10.4 2.90909V2.18182C10.4 1.78016 10.0418 1.45455 9.6 1.45455H6.4C5.95817 1.45455 5.6 1.78016 5.6 2.18182V2.90909H10.4Z" fill="#B2D2FF"/>
</svg>
